<mxfile host="app.diagrams.net" modified="2023-04-25T21:16:45.818Z" agent="Mozilla/5.0 (Windows NT 10.0; Win64; x64) AppleWebKit/537.36 (KHTML, like Gecko) Chrome/112.0.0.0 Safari/537.36 Edg/112.0.1722.58" etag="c5iY4b1nZsBaFOGX32Ib" version="21.1.7" type="github">
  <diagram name="第 1 页" id="2hvjWOSCP4i3mP-eJrqs">
    <mxGraphModel dx="1355" dy="1853" grid="0" gridSize="10" guides="1" tooltips="1" connect="1" arrows="1" fold="1" page="0" pageScale="1" pageWidth="827" pageHeight="1169" math="0" shadow="0">
      <root>
        <mxCell id="0" />
        <mxCell id="1" parent="0" />
        <mxCell id="rDPv29aQ2BbWqo3by1xu-2" value="" style="ellipse;whiteSpace=wrap;html=1;aspect=fixed;" vertex="1" parent="1">
          <mxGeometry x="-259" y="-35" width="80" height="80" as="geometry" />
        </mxCell>
        <mxCell id="rDPv29aQ2BbWqo3by1xu-21" style="edgeStyle=orthogonalEdgeStyle;rounded=0;orthogonalLoop=1;jettySize=auto;html=1;exitX=1;exitY=0.5;exitDx=0;exitDy=0;entryX=0.5;entryY=1;entryDx=0;entryDy=0;" edge="1" parent="1" source="rDPv29aQ2BbWqo3by1xu-3" target="rDPv29aQ2BbWqo3by1xu-5">
          <mxGeometry relative="1" as="geometry" />
        </mxCell>
        <mxCell id="rDPv29aQ2BbWqo3by1xu-3" value="" style="ellipse;whiteSpace=wrap;html=1;aspect=fixed;fillColor=none;strokeColor=default;dashed=1;dashPattern=12 12;" vertex="1" parent="1">
          <mxGeometry x="-268" y="-44" width="98" height="98" as="geometry" />
        </mxCell>
        <mxCell id="rDPv29aQ2BbWqo3by1xu-11" style="edgeStyle=orthogonalEdgeStyle;rounded=0;orthogonalLoop=1;jettySize=auto;html=1;exitX=0.25;exitY=0;exitDx=0;exitDy=0;" edge="1" parent="1" source="rDPv29aQ2BbWqo3by1xu-5">
          <mxGeometry relative="1" as="geometry">
            <mxPoint x="18.1837158203125" y="-18" as="targetPoint" />
          </mxGeometry>
        </mxCell>
        <mxCell id="rDPv29aQ2BbWqo3by1xu-13" style="edgeStyle=orthogonalEdgeStyle;rounded=0;orthogonalLoop=1;jettySize=auto;html=1;exitX=0.75;exitY=0;exitDx=0;exitDy=0;" edge="1" parent="1" source="rDPv29aQ2BbWqo3by1xu-5">
          <mxGeometry relative="1" as="geometry">
            <mxPoint x="18" y="28" as="targetPoint" />
          </mxGeometry>
        </mxCell>
        <mxCell id="rDPv29aQ2BbWqo3by1xu-5" value="复接器" style="rounded=0;whiteSpace=wrap;html=1;rotation=90;labelPosition=center;verticalLabelPosition=middle;align=center;verticalAlign=middle;horizontal=0;" vertex="1" parent="1">
          <mxGeometry x="-130" y="-25" width="92" height="60" as="geometry" />
        </mxCell>
        <mxCell id="rDPv29aQ2BbWqo3by1xu-7" style="edgeStyle=orthogonalEdgeStyle;rounded=0;orthogonalLoop=1;jettySize=auto;html=1;exitX=0.25;exitY=1;exitDx=0;exitDy=0;entryX=0;entryY=0.75;entryDx=0;entryDy=0;" edge="1" parent="1" source="rDPv29aQ2BbWqo3by1xu-6" target="rDPv29aQ2BbWqo3by1xu-5">
          <mxGeometry relative="1" as="geometry" />
        </mxCell>
        <mxCell id="rDPv29aQ2BbWqo3by1xu-8" style="edgeStyle=orthogonalEdgeStyle;rounded=0;orthogonalLoop=1;jettySize=auto;html=1;exitX=0.75;exitY=1;exitDx=0;exitDy=0;entryX=0;entryY=0.25;entryDx=0;entryDy=0;" edge="1" parent="1" source="rDPv29aQ2BbWqo3by1xu-6" target="rDPv29aQ2BbWqo3by1xu-5">
          <mxGeometry relative="1" as="geometry" />
        </mxCell>
        <mxCell id="rDPv29aQ2BbWqo3by1xu-6" value="恒流源" style="rounded=0;whiteSpace=wrap;html=1;" vertex="1" parent="1">
          <mxGeometry x="-130" y="-97" width="96" height="38" as="geometry" />
        </mxCell>
        <mxCell id="rDPv29aQ2BbWqo3by1xu-15" style="edgeStyle=orthogonalEdgeStyle;rounded=0;orthogonalLoop=1;jettySize=auto;html=1;exitX=1;exitY=0.5;exitDx=0;exitDy=0;entryX=0;entryY=0.5;entryDx=0;entryDy=0;" edge="1" parent="1" source="rDPv29aQ2BbWqo3by1xu-9" target="rDPv29aQ2BbWqo3by1xu-14">
          <mxGeometry relative="1" as="geometry" />
        </mxCell>
        <mxCell id="rDPv29aQ2BbWqo3by1xu-16" style="edgeStyle=orthogonalEdgeStyle;rounded=0;orthogonalLoop=1;jettySize=auto;html=1;exitX=0.5;exitY=1;exitDx=0;exitDy=0;entryX=0.5;entryY=1;entryDx=0;entryDy=0;endArrow=none;endFill=0;" edge="1" parent="1" source="rDPv29aQ2BbWqo3by1xu-9" target="rDPv29aQ2BbWqo3by1xu-14">
          <mxGeometry relative="1" as="geometry">
            <Array as="points">
              <mxPoint x="49" y="54" />
              <mxPoint x="174" y="54" />
            </Array>
          </mxGeometry>
        </mxCell>
        <mxCell id="rDPv29aQ2BbWqo3by1xu-9" value="放大" style="triangle;whiteSpace=wrap;html=1;align=center;" vertex="1" parent="1">
          <mxGeometry x="19" y="-35" width="60" height="80" as="geometry" />
        </mxCell>
        <mxCell id="rDPv29aQ2BbWqo3by1xu-18" style="edgeStyle=orthogonalEdgeStyle;rounded=0;orthogonalLoop=1;jettySize=auto;html=1;exitX=1;exitY=0.25;exitDx=0;exitDy=0;endArrow=none;endFill=0;" edge="1" parent="1" source="rDPv29aQ2BbWqo3by1xu-14">
          <mxGeometry relative="1" as="geometry">
            <mxPoint x="275.2404479980469" y="-15" as="targetPoint" />
          </mxGeometry>
        </mxCell>
        <mxCell id="rDPv29aQ2BbWqo3by1xu-19" style="edgeStyle=orthogonalEdgeStyle;rounded=0;orthogonalLoop=1;jettySize=auto;html=1;exitX=1;exitY=0.75;exitDx=0;exitDy=0;entryX=0;entryY=0.75;entryDx=0;entryDy=0;endArrow=none;endFill=0;" edge="1" parent="1" source="rDPv29aQ2BbWqo3by1xu-14" target="rDPv29aQ2BbWqo3by1xu-17">
          <mxGeometry relative="1" as="geometry">
            <mxPoint x="274.4404602050781" y="25" as="targetPoint" />
          </mxGeometry>
        </mxCell>
        <mxCell id="rDPv29aQ2BbWqo3by1xu-14" value="A/D" style="whiteSpace=wrap;html=1;aspect=fixed;" vertex="1" parent="1">
          <mxGeometry x="134" y="-35" width="80" height="80" as="geometry" />
        </mxCell>
        <mxCell id="rDPv29aQ2BbWqo3by1xu-28" style="edgeStyle=orthogonalEdgeStyle;rounded=0;orthogonalLoop=1;jettySize=auto;html=1;exitX=1;exitY=0.25;exitDx=0;exitDy=0;entryX=0.25;entryY=1;entryDx=0;entryDy=0;" edge="1" parent="1" source="rDPv29aQ2BbWqo3by1xu-17" target="rDPv29aQ2BbWqo3by1xu-27">
          <mxGeometry relative="1" as="geometry" />
        </mxCell>
        <mxCell id="rDPv29aQ2BbWqo3by1xu-32" style="edgeStyle=orthogonalEdgeStyle;rounded=0;orthogonalLoop=1;jettySize=auto;html=1;exitX=1;exitY=0.75;exitDx=0;exitDy=0;entryX=0.75;entryY=1;entryDx=0;entryDy=0;" edge="1" parent="1" source="rDPv29aQ2BbWqo3by1xu-17" target="rDPv29aQ2BbWqo3by1xu-27">
          <mxGeometry relative="1" as="geometry" />
        </mxCell>
        <mxCell id="rDPv29aQ2BbWqo3by1xu-17" value="DSP&lt;br&gt;(TMS320C52)" style="whiteSpace=wrap;html=1;aspect=fixed;" vertex="1" parent="1">
          <mxGeometry x="277" y="-35" width="80" height="80" as="geometry" />
        </mxCell>
        <mxCell id="rDPv29aQ2BbWqo3by1xu-25" style="edgeStyle=orthogonalEdgeStyle;rounded=0;orthogonalLoop=1;jettySize=auto;html=1;exitX=0.25;exitY=1;exitDx=0;exitDy=0;entryX=0.25;entryY=0;entryDx=0;entryDy=0;" edge="1" parent="1" source="rDPv29aQ2BbWqo3by1xu-22" target="rDPv29aQ2BbWqo3by1xu-17">
          <mxGeometry relative="1" as="geometry" />
        </mxCell>
        <mxCell id="rDPv29aQ2BbWqo3by1xu-26" style="edgeStyle=orthogonalEdgeStyle;rounded=0;orthogonalLoop=1;jettySize=auto;html=1;exitX=0.75;exitY=1;exitDx=0;exitDy=0;entryX=0.75;entryY=0;entryDx=0;entryDy=0;" edge="1" parent="1" source="rDPv29aQ2BbWqo3by1xu-22" target="rDPv29aQ2BbWqo3by1xu-17">
          <mxGeometry relative="1" as="geometry" />
        </mxCell>
        <mxCell id="rDPv29aQ2BbWqo3by1xu-22" value="RAM" style="rounded=0;whiteSpace=wrap;html=1;" vertex="1" parent="1">
          <mxGeometry x="269" y="-97" width="96" height="38" as="geometry" />
        </mxCell>
        <mxCell id="rDPv29aQ2BbWqo3by1xu-39" style="edgeStyle=orthogonalEdgeStyle;rounded=0;orthogonalLoop=1;jettySize=auto;html=1;exitX=0.25;exitY=0;exitDx=0;exitDy=0;entryX=0.041;entryY=0.196;entryDx=0;entryDy=0;entryPerimeter=0;endArrow=none;endFill=0;" edge="1" parent="1" source="rDPv29aQ2BbWqo3by1xu-27" target="rDPv29aQ2BbWqo3by1xu-36">
          <mxGeometry relative="1" as="geometry">
            <Array as="points">
              <mxPoint x="456" y="-7" />
              <mxPoint x="542" y="-7" />
            </Array>
          </mxGeometry>
        </mxCell>
        <mxCell id="rDPv29aQ2BbWqo3by1xu-40" style="edgeStyle=orthogonalEdgeStyle;rounded=0;orthogonalLoop=1;jettySize=auto;html=1;exitX=0.5;exitY=0;exitDx=0;exitDy=0;entryX=0.051;entryY=0.509;entryDx=0;entryDy=0;entryPerimeter=0;endArrow=none;endFill=0;" edge="1" parent="1" source="rDPv29aQ2BbWqo3by1xu-27" target="rDPv29aQ2BbWqo3by1xu-36">
          <mxGeometry relative="1" as="geometry">
            <Array as="points">
              <mxPoint x="456" y="3" />
              <mxPoint x="543" y="3" />
            </Array>
          </mxGeometry>
        </mxCell>
        <mxCell id="rDPv29aQ2BbWqo3by1xu-27" value="传输接口" style="rounded=0;whiteSpace=wrap;html=1;rotation=90;horizontal=0;" vertex="1" parent="1">
          <mxGeometry x="386" y="-25" width="80.5" height="60" as="geometry" />
        </mxCell>
        <mxCell id="rDPv29aQ2BbWqo3by1xu-36" value="" style="verticalLabelPosition=bottom;sketch=0;html=1;fillColor=#282828;strokeColor=none;verticalAlign=top;pointerEvents=1;align=center;shape=mxgraph.cisco_safe.technology_icons.icon4;" vertex="1" parent="1">
          <mxGeometry x="539" y="-27.869999999999997" width="74" height="65.75" as="geometry" />
        </mxCell>
        <mxCell id="rDPv29aQ2BbWqo3by1xu-41" value="" style="endArrow=none;dashed=1;html=1;dashPattern=1 3;strokeWidth=2;rounded=0;" edge="1" parent="1">
          <mxGeometry width="50" height="50" relative="1" as="geometry">
            <mxPoint x="503" y="98" as="sourcePoint" />
            <mxPoint x="503" y="-129" as="targetPoint" />
          </mxGeometry>
        </mxCell>
        <mxCell id="rDPv29aQ2BbWqo3by1xu-42" value="图像重建" style="rounded=0;whiteSpace=wrap;html=1;fillColor=none;strokeColor=none;fontSize=17;" vertex="1" parent="1">
          <mxGeometry x="526" y="59" width="96" height="38" as="geometry" />
        </mxCell>
        <mxCell id="rDPv29aQ2BbWqo3by1xu-43" value="数据采集" style="rounded=0;whiteSpace=wrap;html=1;fillColor=none;strokeColor=none;fontSize=17;" vertex="1" parent="1">
          <mxGeometry x="56" y="59" width="96" height="38" as="geometry" />
        </mxCell>
      </root>
    </mxGraphModel>
  </diagram>
</mxfile>
